<svg width="26" height="25" viewBox="0 0 26 25" fill="none" xmlns="http://www.w3.org/2000/svg">
<path fill-rule="evenodd" clip-rule="evenodd" d="M13.3663 4.11623C13.6007 3.88189 13.9185 3.75024 14.25 3.75024C14.5815 3.75024 14.8993 3.88189 15.1337 4.11623L22.6338 11.6162C22.8681 11.8506 22.9997 12.1685 22.9997 12.5C22.9997 12.8314 22.8681 13.1493 22.6338 13.3837L15.1337 20.8837C14.898 21.1114 14.5822 21.2374 14.2545 21.2346C13.9268 21.2317 13.6132 21.1003 13.3815 20.8685C13.1497 20.6367 13.0183 20.3232 13.0154 19.9955C13.0126 19.6677 13.1386 19.352 13.3663 19.1162L18.7325 13.75H4.25C3.91848 13.75 3.60054 13.6183 3.36612 13.3839C3.1317 13.1494 3 12.8315 3 12.5C3 12.1685 3.1317 11.8505 3.36612 11.6161C3.60054 11.3817 3.91848 11.25 4.25 11.25H18.7325L13.3663 5.88373C13.1319 5.64932 13.0003 5.33143 13.0003 4.99998C13.0003 4.66852 13.1319 4.35064 13.3663 4.11623Z" fill="#4E8655"/>
</svg>
