<svg width="33" height="33" viewBox="0 0 33 33" fill="none" xmlns="http://www.w3.org/2000/svg">
<path d="M14.8498 7.92659C13.0508 7.0507 11.0757 6.59698 9.07481 6.59999C7.00405 6.59999 5.04385 7.07849 3.2998 7.92659V24.4266C5.0988 23.5508 7.07394 23.097 9.07481 23.1C11.8287 23.1 14.3845 23.9415 16.4998 25.3852C18.6878 23.8924 21.276 23.0958 23.9248 23.1C25.9956 23.1 27.9558 23.5785 29.6998 24.4266V7.92659C27.9008 7.0507 25.9257 6.59698 23.9248 6.59999C21.8541 6.59999 19.8939 7.07849 18.1498 7.92659V19.8C18.1498 20.2376 17.976 20.6573 17.6665 20.9667C17.3571 21.2762 16.9374 21.45 16.4998 21.45C16.0622 21.45 15.6425 21.2762 15.3331 20.9667C15.0236 20.6573 14.8498 20.2376 14.8498 19.8V7.92659Z" fill="white"/>
</svg>
