<svg width="33" height="33" viewBox="0 0 33 33" fill="none" xmlns="http://www.w3.org/2000/svg">
<path d="M5.93724 8.6873C5.36267 9.26187 4.9069 9.94398 4.59594 10.6947C4.28499 11.4454 4.12494 12.25 4.12494 13.0626C4.12494 13.8751 4.28499 14.6797 4.59594 15.4304C4.9069 16.1811 5.36267 16.8632 5.93724 17.4378L16.5 28.0006L27.0627 17.4378C28.2231 16.2774 28.875 14.7036 28.875 13.0626C28.875 11.4215 28.2231 9.84769 27.0627 8.6873C25.9024 7.52692 24.3285 6.87502 22.6875 6.87502C21.0465 6.87502 19.4726 7.52692 18.3122 8.6873L16.5 10.4996L14.6877 8.6873C14.1132 8.11273 13.4311 7.65696 12.6804 7.346C11.9297 7.03505 11.1251 6.875 10.3125 6.875C9.49993 6.875 8.69533 7.03505 7.94462 7.346C7.19391 7.65696 6.51181 8.11273 5.93724 8.6873Z" stroke="white" stroke-width="2.75" stroke-linecap="round" stroke-linejoin="round"/>
</svg>
