<svg width="33" height="33" viewBox="0 0 33 33" fill="none" xmlns="http://www.w3.org/2000/svg">
<path fill-rule="evenodd" clip-rule="evenodd" d="M5.23366 8.53381C6.47134 7.2965 8.14978 6.60142 9.89986 6.60142C11.6499 6.60142 13.3284 7.2965 14.5661 8.53381L16.4999 10.466L18.4337 8.53381C19.0425 7.90344 19.7708 7.40064 20.576 7.05474C21.3812 6.70884 22.2473 6.52677 23.1236 6.51915C24 6.51154 24.869 6.67853 25.6802 7.01038C26.4913 7.34224 27.2282 7.83231 27.8479 8.452C28.4676 9.07169 28.9576 9.8086 29.2895 10.6197C29.6213 11.4308 29.7883 12.2999 29.7807 13.1763C29.7731 14.0526 29.591 14.9187 29.2451 15.7239C28.8992 16.5291 28.3964 17.2574 27.7661 17.8662L16.4999 29.1341L5.23366 17.8662C3.99635 16.6285 3.30127 14.9501 3.30127 13.2C3.30127 11.4499 3.99635 9.77149 5.23366 8.53381Z" fill="white"/>
</svg>
