<svg width="100" height="100" viewBox="0 0 100 100" fill="none" xmlns="http://www.w3.org/2000/svg">
  <path d="M58.3333 66.6665V87.4998H41.6667V74.9998H37.5C34.1848 74.9998 31.0054 73.6829 28.6612 71.3387C26.317 68.9945 25 65.815 25 62.4998V49.9998C25 48.8948 25.439 47.835 26.2204 47.0536C27.0018 46.2722 28.0616 45.8332 29.1667 45.8332C30.2717 45.8332 31.3315 46.2722 32.1129 47.0536C32.8943 47.835 33.3333 48.8948 33.3333 49.9998V62.4998C33.3333 64.8332 35.2083 66.6665 37.5 66.6665H41.6667V24.9998C41.6667 22.7897 42.5446 20.6701 44.1074 19.1073C45.6702 17.5445 47.7899 16.6665 50 16.6665C52.2101 16.6665 54.3298 17.5445 55.8926 19.1073C57.4554 20.6701 58.3333 22.7897 58.3333 24.9998V58.3332H62.5C63.6051 58.3332 64.6649 57.8942 65.4463 57.1128C66.2277 56.3314 66.6667 55.2716 66.6667 54.1665V45.8332C66.6667 44.7281 67.1056 43.6683 67.8871 42.8869C68.6685 42.1055 69.7283 41.6665 70.8333 41.6665C71.9384 41.6665 72.9982 42.1055 73.7796 42.8869C74.561 43.6683 75 44.7281 75 45.8332V54.1665C75 57.4817 73.683 60.6611 71.3388 63.0053C68.9946 65.3495 65.8152 66.6665 62.5 66.6665H58.3333Z" fill="#4E8655" />
</svg>