<svg width="100" height="100" viewBox="0 0 100 100" fill="none" xmlns="http://www.w3.org/2000/svg">
<path d="M54.1666 8.3335V12.5002H50V37.5002H45.8333V41.6668H37.5V45.8335H33.3333V50.0002H29.1666V54.1668H20.8333V50.0002H16.6666V45.8335H12.5V37.5002H8.33331V62.5002H12.5V66.6668H16.6666V70.8335H20.8333V75.0002H25V91.6668H33.3333V87.5002H29.1666V83.3335H33.3333V79.1668H37.5V75.0002H41.6666V79.1668H45.8333V91.6668H54.1666V87.5002H50V70.8335H54.1666V66.6668H58.3333V62.5002H62.5V50.0002H66.6666V54.1668H70.8333V45.8335H62.5V37.5002H83.3333V33.3335H70.8333V29.1668H91.6666V12.5002H87.5V8.3335M58.3333 12.5002H62.5V16.6668H58.3333V12.5002Z" fill="#4E8655"/>
</svg>
