<svg width="40" height="40" viewBox="0 0 40 40" fill="none" xmlns="http://www.w3.org/2000/svg">
<path d="M27.172 7.172C27.541 6.78996 27.9824 6.48523 28.4704 6.2756C28.9584 6.06596 29.4833 5.95562 30.0144 5.951C30.5455 5.94639 31.0722 6.04759 31.5638 6.24872C32.0554 6.44984 32.502 6.74685 32.8776 7.12242C33.2531 7.49799 33.5502 7.9446 33.7513 8.43619C33.9524 8.92777 34.0536 9.45449 34.049 9.98561C34.0444 10.5167 33.934 11.0416 33.7244 11.5296C33.5148 12.0176 33.21 12.459 32.828 12.828L31.242 14.414L25.586 8.758L27.172 7.172ZM22.758 11.586L6 28.344V34H11.656L28.416 17.242L22.758 11.586Z" fill="white"/>
</svg>
