<svg width="40" height="40" viewBox="0 0 40 40" fill="none" xmlns="http://www.w3.org/2000/svg">
  <path fill-rule="evenodd" clip-rule="evenodd" d="M8.58557 8.58616C8.96063 8.21122 9.46924 8.00059 9.99957 8.00059C10.5299 8.00059 11.0385 8.21122 11.4136 8.58616L19.9996 17.1722L28.5856 8.58616C28.7701 8.39514 28.9908 8.24278 29.2348 8.13796C29.4788 8.03314 29.7412 7.97797 30.0068 7.97566C30.2723 7.97335 30.5357 8.02396 30.7815 8.12452C31.0273 8.22508 31.2506 8.37359 31.4384 8.56137C31.6261 8.74916 31.7747 8.97246 31.8752 9.21825C31.9758 9.46405 32.0264 9.72741 32.0241 9.99296C32.0218 10.2585 31.9666 10.521 31.8618 10.765C31.757 11.009 31.6046 11.2297 31.4136 11.4142L22.8276 20.0002L31.4136 28.5862C31.7779 28.9634 31.9795 29.4686 31.9749 29.993C31.9704 30.5174 31.76 31.019 31.3892 31.3898C31.0184 31.7606 30.5168 31.971 29.9924 31.9755C29.468 31.9801 28.9628 31.7785 28.5856 31.4142L19.9996 22.8282L11.4136 31.4142C11.0364 31.7785 10.5312 31.9801 10.0068 31.9755C9.48238 31.971 8.98075 31.7606 8.60994 31.3898C8.23912 31.019 8.02878 30.5174 8.02422 29.993C8.01967 29.4686 8.22126 28.9634 8.58557 28.5862L17.1716 20.0002L8.58557 11.4142C8.21063 11.0391 8 10.5305 8 10.0002C8 9.46983 8.21063 8.96122 8.58557 8.58616Z" fill="white" />
</svg>