<svg width="100" height="100" viewBox="0 0 100 100" fill="none" xmlns="http://www.w3.org/2000/svg">
<path d="M54.1666 8.33331V12.5H50V37.5H45.8333V41.6666H37.5V45.8333H33.3333V50H29.1666V54.1666H20.8333V50H16.6666V45.8333H12.5V37.5H8.33331V62.5H12.5V66.6666H16.6666V70.8333H20.8333V75H25V91.6666H33.3333V87.5H29.1666V83.3333H33.3333V79.1666H37.5V75H41.6666V79.1666H45.8333V91.6666H54.1666V87.5H50V70.8333H54.1666V66.6666H58.3333V62.5H62.5V50H66.6666V54.1666H70.8333V45.8333H62.5V37.5H83.3333V33.3333H70.8333V29.1666H91.6666V12.5H87.5V8.33331M58.3333 12.5H62.5V16.6666H58.3333V12.5Z" fill="white"/>
</svg>
