<svg width="45" height="45" viewBox="0 0 45 45" fill="none" xmlns="http://www.w3.org/2000/svg">
<path d="M23.8532 3.66974V5.5046H22.0184V16.5138H20.1835V18.3486H16.5138V20.1835H14.6789V22.0184H12.8441V23.8532H9.17433V22.0184H7.33946V20.1835H5.5046V16.5138H3.66974V27.5229H5.5046V29.3578H7.33946V31.1927H9.17433V33.0275H11.0092V40.367H14.6789V38.5321H12.8441V36.6973H14.6789V34.8624H16.5138V33.0275H18.3486V34.8624H20.1835V40.367H23.8532V38.5321H22.0184V31.1927H23.8532V29.3578H25.6881V27.5229H27.5229V22.0184H29.3578V23.8532H31.1927V20.1835H27.5229V16.5138H36.6973V14.6789H31.1927V12.8441H40.367V5.5046H38.5321V3.66974M25.6881 5.5046H27.5229V7.33946H25.6881V5.5046Z" fill="#4E8655"/>
</svg>
