<svg width="80" height="45" viewBox="0 0 80 45" fill="none" xmlns="http://www.w3.org/2000/svg">
<path d="M41.4679 3.66992V5.50478H39.633V16.514H37.7982V18.3488H34.1285V20.1837H32.2936V22.0185H30.4587V23.8534H26.789V22.0185H24.9541V20.1837H23.1193V16.514H21.2844V27.5231H23.1193V29.358H24.9541V31.1929H26.789V33.0277H28.6239V40.3672H32.2936V38.5323H30.4587V36.6974H32.2936V34.8626H34.1285V33.0277H35.9633V34.8626H37.7982V40.3672H41.4679V38.5323H39.633V31.1929H41.4679V29.358H43.3028V27.5231H45.1376V22.0185H46.9725V23.8534H48.8074V20.1837H45.1376V16.514H54.3119V14.6791H48.8074V12.8442H57.9817V5.50478H56.1468V3.66992M43.3028 5.50478H45.1376V7.33965H43.3028V5.50478Z" fill="white"/>
<path d="M1.65568 15.9498C1.65568 15.3979 1.93162 15.1219 2.48351 15.1219H7.45054C8.61286 15.1219 9.59122 15.5233 10.3856 16.3261C11.1884 17.1205 11.5897 18.0988 11.5897 19.2611V27.5395C11.5897 28.6851 11.1842 29.6635 10.3731 30.4746C9.57031 31.2773 8.59614 31.6787 7.45054 31.6787H2.48351C1.93162 31.6787 1.65568 31.4028 1.65568 30.8509V15.9498ZM3.31135 16.7776V30.023H7.45054C8.13623 30.023 8.72157 29.7805 9.20657 29.2955C9.69156 28.8105 9.93406 28.2252 9.93406 27.5395V19.2611C9.93406 18.5755 9.69156 17.9901 9.20657 17.5051C8.72157 17.0201 8.13623 16.7776 7.45054 16.7776H3.31135ZM14.9011 20.9168C14.9011 20.3649 15.177 20.089 15.7289 20.089C16.2808 20.089 16.5568 20.3649 16.5568 20.9168V30.8509C16.5568 31.4028 16.2808 31.6787 15.7289 31.6787C15.177 31.6787 14.9011 31.4028 14.9011 30.8509V20.9168ZM14.9011 16.7776V15.9498C14.9011 15.3979 15.177 15.1219 15.7289 15.1219C16.2808 15.1219 16.5568 15.3979 16.5568 15.9498V16.7776C16.5568 17.3295 16.2808 17.6055 15.7289 17.6055C15.177 17.6055 14.9011 17.3295 14.9011 16.7776ZM19.8681 30.8509V20.9168C19.8681 20.3649 20.1441 20.089 20.696 20.089H24.8351C25.7633 20.089 26.5452 20.4109 27.1807 21.0548C27.8246 21.6903 28.1465 22.4721 28.1465 23.4003V30.8509C28.1465 31.4028 27.8706 31.6787 27.3187 31.6787C26.7668 31.6787 26.4908 31.4028 26.4908 30.8509V23.4003C26.4908 22.9321 26.3319 22.539 26.0142 22.2213C25.6964 21.9035 25.3034 21.7447 24.8351 21.7447H21.5238V30.8509C21.5238 31.4028 21.2478 31.6787 20.696 31.6787C20.1441 31.6787 19.8681 31.4028 19.8681 30.8509ZM31.4579 27.5395V24.2282C31.4579 23.0826 31.8592 22.1084 32.662 21.3056C33.4731 20.4945 34.4515 20.089 35.597 20.089C36.7594 20.089 37.7377 20.4904 38.5321 21.2931C39.3349 22.0875 39.7362 23.0658 39.7362 24.2282V27.5395C39.7362 28.6851 39.3307 29.6635 38.5196 30.4746C37.7168 31.2773 36.7426 31.6787 35.597 31.6787C34.4515 31.6787 33.4731 31.2773 32.662 30.4746C31.8592 29.6635 31.4579 28.6851 31.4579 27.5395ZM38.0806 27.5395V24.2282C38.0806 23.5425 37.8381 22.9571 37.3531 22.4721C36.8681 21.9871 36.2827 21.7447 35.597 21.7447C34.9114 21.7447 34.326 21.9871 33.841 22.4721C33.356 22.9571 33.1135 23.5425 33.1135 24.2282V27.5395C33.1135 28.2336 33.3518 28.8231 33.8285 29.3081C34.3135 29.7847 34.903 30.023 35.597 30.023C36.2827 30.023 36.8681 29.7805 37.3531 29.2955C37.8381 28.8105 38.0806 28.2252 38.0806 27.5395ZM43.8754 31.6787C43.3235 31.6787 43.0476 31.4028 43.0476 30.8509V15.9498C43.0476 15.3979 43.3235 15.1219 43.8754 15.1219C44.4273 15.1219 44.7033 15.3979 44.7033 15.9498V30.8509C44.7033 31.4028 44.4273 31.6787 43.8754 31.6787ZM48.0146 30.8509V20.9168C48.0146 20.3649 48.2906 20.089 48.8425 20.089H52.9817C53.9098 20.089 54.6917 20.4109 55.3272 21.0548C55.9711 21.6903 56.293 22.4721 56.293 23.4003V30.8509C56.293 31.4028 56.0171 31.6787 55.4652 31.6787C54.9133 31.6787 54.6373 31.4028 54.6373 30.8509V23.4003C54.6373 22.9321 54.4785 22.539 54.1607 22.2213C53.8429 21.9035 53.4499 21.7447 52.9817 21.7447H49.6703V30.8509C49.6703 31.4028 49.3944 31.6787 48.8425 31.6787C48.2906 31.6787 48.0146 31.4028 48.0146 30.8509ZM60.4322 20.089H61.26V18.4333C61.26 17.5051 61.582 16.7233 62.2258 16.0878C62.8697 15.4439 63.6516 15.1219 64.5714 15.1219H65.3992C65.9511 15.1219 66.2271 15.3979 66.2271 15.9498C66.2271 16.5017 65.9511 16.7776 65.3992 16.7776H64.5714C64.1115 16.7776 63.7185 16.9407 63.3923 17.2668C63.0746 17.5846 62.9157 17.9734 62.9157 18.4333V20.089H65.3992C65.9511 20.089 66.2271 20.3649 66.2271 20.9168C66.2271 21.4687 65.9511 21.7447 65.3992 21.7447H62.9157V30.8509C62.9157 31.4028 62.6398 31.6787 62.0879 31.6787C61.536 31.6787 61.26 31.4028 61.26 30.8509V21.7447H60.4322C59.8803 21.7447 59.6044 21.4687 59.6044 20.9168C59.6044 20.3649 59.8803 20.089 60.4322 20.089ZM69.5384 27.5395V24.2282C69.5384 23.0826 69.9398 22.1084 70.7425 21.3056C71.5537 20.4945 72.532 20.089 73.6776 20.089C74.8399 20.089 75.8183 20.4904 76.6127 21.2931C77.4154 22.0875 77.8168 23.0658 77.8168 24.2282V27.5395C77.8168 28.6851 77.4112 29.6635 76.6001 30.4746C75.7974 31.2773 74.8232 31.6787 73.6776 31.6787C72.532 31.6787 71.5537 31.2773 70.7425 30.4746C69.9398 29.6635 69.5384 28.6851 69.5384 27.5395ZM76.1611 27.5395V24.2282C76.1611 23.5425 75.9186 22.9571 75.4336 22.4721C74.9486 21.9871 74.3633 21.7447 73.6776 21.7447C72.9919 21.7447 72.4066 21.9871 71.9216 22.4721C71.4366 22.9571 71.1941 23.5425 71.1941 24.2282V27.5395C71.1941 28.2336 71.4324 28.8231 71.909 29.3081C72.394 29.7847 72.9836 30.023 73.6776 30.023C74.3633 30.023 74.9486 29.7805 75.4336 29.2955C75.9186 28.8105 76.1611 28.2252 76.1611 27.5395Z" fill="black"/>
</svg>
