<svg width="80" height="45" viewBox="0 0 80 45" fill="none" xmlns="http://www.w3.org/2000/svg">
<path d="M41.4679 3.66974V5.5046H39.633V16.5138H37.7982V18.3486H34.1285V20.1835H32.2936V22.0184H30.4587V23.8532H26.789V22.0184H24.9541V20.1835H23.1193V16.5138H21.2844V27.5229H23.1193V29.3578H24.9541V31.1927H26.789V33.0275H28.6239V40.367H32.2936V38.5321H30.4587V36.6973H32.2936V34.8624H34.1285V33.0275H35.9633V34.8624H37.7982V40.367H41.4679V38.5321H39.633V31.1927H41.4679V29.3578H43.3028V27.5229H45.1376V22.0184H46.9725V23.8532H48.8074V20.1835H45.1376V16.5138H54.3119V14.6789H48.8074V12.8441H57.9817V5.5046H56.1468V3.66974M43.3028 5.5046H45.1376V7.33946H43.3028V5.5046Z" fill="#4E8655"/>
<path d="M1.65568 15.95C1.65568 15.3981 1.93162 15.1221 2.48351 15.1221H7.45054C8.61286 15.1221 9.59122 15.5235 10.3856 16.3263C11.1884 17.1206 11.5897 18.099 11.5897 19.2613V27.5397C11.5897 28.6853 11.1842 29.6637 10.3731 30.4748C9.57031 31.2775 8.59614 31.6789 7.45054 31.6789H2.48351C1.93162 31.6789 1.65568 31.4029 1.65568 30.8511V15.95ZM3.31135 16.7778V30.0232H7.45054C8.13623 30.0232 8.72157 29.7807 9.20657 29.2957C9.69156 28.8107 9.93406 28.2254 9.93406 27.5397V19.2613C9.93406 18.5756 9.69156 17.9903 9.20657 17.5053C8.72157 17.0203 8.13623 16.7778 7.45054 16.7778H3.31135ZM14.9011 20.917C14.9011 20.3651 15.177 20.0892 15.7289 20.0892C16.2808 20.0892 16.5568 20.3651 16.5568 20.917V30.8511C16.5568 31.4029 16.2808 31.6789 15.7289 31.6789C15.177 31.6789 14.9011 31.4029 14.9011 30.8511V20.917ZM14.9011 16.7778V15.95C14.9011 15.3981 15.177 15.1221 15.7289 15.1221C16.2808 15.1221 16.5568 15.3981 16.5568 15.95V16.7778C16.5568 17.3297 16.2808 17.6056 15.7289 17.6056C15.177 17.6056 14.9011 17.3297 14.9011 16.7778ZM19.8681 30.8511V20.917C19.8681 20.3651 20.1441 20.0892 20.696 20.0892H24.8351C25.7633 20.0892 26.5452 20.4111 27.1807 21.055C27.8246 21.6905 28.1465 22.4723 28.1465 23.4005V30.8511C28.1465 31.4029 27.8706 31.6789 27.3187 31.6789C26.7668 31.6789 26.4908 31.4029 26.4908 30.8511V23.4005C26.4908 22.9322 26.3319 22.5392 26.0142 22.2215C25.6964 21.9037 25.3034 21.7448 24.8351 21.7448H21.5238V30.8511C21.5238 31.4029 21.2478 31.6789 20.696 31.6789C20.1441 31.6789 19.8681 31.4029 19.8681 30.8511ZM31.4579 27.5397V24.2283C31.4579 23.0828 31.8592 22.1086 32.662 21.3058C33.4731 20.4947 34.4515 20.0892 35.597 20.0892C36.7594 20.0892 37.7377 20.4905 38.5321 21.2933C39.3349 22.0877 39.7362 23.066 39.7362 24.2283V27.5397C39.7362 28.6853 39.3307 29.6637 38.5196 30.4748C37.7168 31.2775 36.7426 31.6789 35.597 31.6789C34.4515 31.6789 33.4731 31.2775 32.662 30.4748C31.8592 29.6637 31.4579 28.6853 31.4579 27.5397ZM38.0806 27.5397V24.2283C38.0806 23.5427 37.8381 22.9573 37.3531 22.4723C36.8681 21.9873 36.2827 21.7448 35.597 21.7448C34.9114 21.7448 34.326 21.9873 33.841 22.4723C33.356 22.9573 33.1135 23.5427 33.1135 24.2283V27.5397C33.1135 28.2337 33.3518 28.8233 33.8285 29.3083C34.3135 29.7849 34.903 30.0232 35.597 30.0232C36.2827 30.0232 36.8681 29.7807 37.3531 29.2957C37.8381 28.8107 38.0806 28.2254 38.0806 27.5397ZM43.8754 31.6789C43.3235 31.6789 43.0476 31.4029 43.0476 30.8511V15.95C43.0476 15.3981 43.3235 15.1221 43.8754 15.1221C44.4273 15.1221 44.7033 15.3981 44.7033 15.95V30.8511C44.7033 31.4029 44.4273 31.6789 43.8754 31.6789ZM48.0146 30.8511V20.917C48.0146 20.3651 48.2906 20.0892 48.8425 20.0892H52.9817C53.9098 20.0892 54.6917 20.4111 55.3272 21.055C55.9711 21.6905 56.293 22.4723 56.293 23.4005V30.8511C56.293 31.4029 56.0171 31.6789 55.4652 31.6789C54.9133 31.6789 54.6373 31.4029 54.6373 30.8511V23.4005C54.6373 22.9322 54.4785 22.5392 54.1607 22.2215C53.8429 21.9037 53.4499 21.7448 52.9817 21.7448H49.6703V30.8511C49.6703 31.4029 49.3944 31.6789 48.8425 31.6789C48.2906 31.6789 48.0146 31.4029 48.0146 30.8511ZM60.4322 20.0892H61.26V18.4335C61.26 17.5053 61.582 16.7235 62.2258 16.0879C62.8697 15.4441 63.6516 15.1221 64.5714 15.1221H65.3992C65.9511 15.1221 66.2271 15.3981 66.2271 15.95C66.2271 16.5019 65.9511 16.7778 65.3992 16.7778H64.5714C64.1115 16.7778 63.7185 16.9409 63.3923 17.267C63.0746 17.5847 62.9157 17.9736 62.9157 18.4335V20.0892H65.3992C65.9511 20.0892 66.2271 20.3651 66.2271 20.917C66.2271 21.4689 65.9511 21.7448 65.3992 21.7448H62.9157V30.8511C62.9157 31.4029 62.6398 31.6789 62.0879 31.6789C61.536 31.6789 61.26 31.4029 61.26 30.8511V21.7448H60.4322C59.8803 21.7448 59.6044 21.4689 59.6044 20.917C59.6044 20.3651 59.8803 20.0892 60.4322 20.0892ZM69.5384 27.5397V24.2283C69.5384 23.0828 69.9398 22.1086 70.7425 21.3058C71.5537 20.4947 72.532 20.0892 73.6776 20.0892C74.8399 20.0892 75.8183 20.4905 76.6127 21.2933C77.4154 22.0877 77.8168 23.066 77.8168 24.2283V27.5397C77.8168 28.6853 77.4112 29.6637 76.6001 30.4748C75.7974 31.2775 74.8232 31.6789 73.6776 31.6789C72.532 31.6789 71.5537 31.2775 70.7425 30.4748C69.9398 29.6637 69.5384 28.6853 69.5384 27.5397ZM76.1611 27.5397V24.2283C76.1611 23.5427 75.9186 22.9573 75.4336 22.4723C74.9486 21.9873 74.3633 21.7448 73.6776 21.7448C72.9919 21.7448 72.4066 21.9873 71.9216 22.4723C71.4366 22.9573 71.1941 23.5427 71.1941 24.2283V27.5397C71.1941 28.2337 71.4324 28.8233 71.909 29.3083C72.394 29.7849 72.9836 30.0232 73.6776 30.0232C74.3633 30.0232 74.9486 29.7807 75.4336 29.2957C75.9186 28.8107 76.1611 28.2254 76.1611 27.5397Z" fill="black"/>
</svg>
