<svg width="113" height="113" viewBox="0 0 113 113" fill="none" xmlns="http://www.w3.org/2000/svg">
<path d="M60.8885 9.86749V14.5512H56.2048V42.6536H51.521V47.3374H42.1536V52.0211H37.4698V56.7048H32.7861V61.3886H23.4186V56.7048H18.7349V52.0211H14.0512V42.6536H9.36743V70.756H14.0512V75.4398H18.7349V80.1235H23.4186V84.8072H28.1024V103.542H37.4698V98.8584H32.7861V94.1747H37.4698V89.491H42.1536V84.8072H46.8373V89.491H51.521V103.542H60.8885V98.8584H56.2048V80.1235H60.8885V75.4398H65.5722V70.756H70.256V56.7048H74.9397V61.3886H79.6234V52.0211H70.256V42.6536H93.6746V37.9699H79.6234V33.2862H103.042V14.5512H98.3584V9.86749M65.5722 14.5512H70.256V19.235H65.5722V14.5512Z" fill="#1C5E66"/>
</svg>
