<svg width="101" height="100" viewBox="0 0 101 100" fill="none" xmlns="http://www.w3.org/2000/svg">
  <path d="M58.7428 66.6667V87.5H42.0761V75H37.9094C34.5942 75 31.4148 73.6831 29.0706 71.3389C26.7264 68.9946 25.4094 65.8152 25.4094 62.5V50C25.4094 48.895 25.8484 47.8351 26.6298 47.0537C27.4112 46.2723 28.471 45.8334 29.5761 45.8334C30.6812 45.8334 31.741 46.2723 32.5224 47.0537C33.3038 47.8351 33.7428 48.895 33.7428 50V62.5C33.7428 64.8334 35.6178 66.6667 37.9094 66.6667H42.0761V25C42.0761 22.7899 42.9541 20.6703 44.5169 19.1075C46.0797 17.5447 48.1993 16.6667 50.4094 16.6667C52.6196 16.6667 54.7392 17.5447 56.302 19.1075C57.8648 20.6703 58.7428 22.7899 58.7428 25V58.3334H62.9094C64.0145 58.3334 65.0743 57.8944 65.8557 57.113C66.6371 56.3316 67.0761 55.2718 67.0761 54.1667V45.8334C67.0761 44.7283 67.5151 43.6685 68.2965 42.8871C69.0779 42.1057 70.1377 41.6667 71.2428 41.6667C72.3478 41.6667 73.4076 42.1057 74.189 42.8871C74.9704 43.6685 75.4094 44.7283 75.4094 45.8334V54.1667C75.4094 57.4819 74.0925 60.6613 71.7483 63.0055C69.4041 65.3497 66.2246 66.6667 62.9094 66.6667H58.7428Z" fill="#4E8655" />
</svg>