<svg width="131" height="128" viewBox="0 0 131 128" fill="none" xmlns="http://www.w3.org/2000/svg">
<path d="M60.8885 10.3675V15.0512H56.2048V43.1536H51.521V47.8374H42.1536V52.5211H37.4698V57.2048H32.7861V61.8886H23.4186V57.2048H18.7349V52.5211H14.0512V43.1536H9.36743V71.256H14.0512V75.9398H18.7349V80.6235H23.4186V85.3072H28.1024V104.042H37.4698V99.3584H32.7861V94.6747H37.4698V89.991H42.1536V85.3072H46.8373V89.991H51.521V104.042H60.8885V99.3584H56.2048V80.6235H60.8885V75.9398H65.5722V71.256H70.256V57.2048H74.9397V61.8886H79.6234V52.5211H70.256V43.1536H93.6746V38.4699H79.6234V33.7862H103.042V15.0512H98.3584V10.3675M65.5722 15.0512H70.256V19.735H65.5722V15.0512Z" fill="#4E8655"/>
<line x1="121.964" y1="1" x2="121.964" y2="113.41" stroke="black" stroke-width="1.1241"/>
<line x1="113.334" y1="9.95987" x2="121.931" y2="1.36219" stroke="black" stroke-width="1.1241"/>
<line x1="129.988" y1="104.416" x2="121.806" y2="113.41" stroke="black" stroke-width="1.1241"/>
<line x1="121.8" y1="0.602572" x2="130.397" y2="9.20025" stroke="black" stroke-width="1.1241"/>
<line x1="121.974" y1="114.163" x2="112.979" y2="105.981" stroke="black" stroke-width="1.1241"/>
<line x1="4.49634" y1="118.073" x2="116.906" y2="118.073" stroke="black" stroke-width="1.1241"/>
<line x1="13.4561" y1="126.704" x2="4.85841" y2="118.106" stroke="black" stroke-width="1.1241"/>
<line x1="107.912" y1="110.049" x2="116.907" y2="118.231" stroke="black" stroke-width="1.1241"/>
<line x1="4.09891" y1="118.238" x2="12.6966" y2="109.64" stroke="black" stroke-width="1.1241"/>
<line x1="117.659" y1="118.064" x2="109.477" y2="127.058" stroke="black" stroke-width="1.1241"/>
</svg>
