<svg width="28" height="28" viewBox="0 0 28 28" fill="none" xmlns="http://www.w3.org/2000/svg">
  <path fill-rule="evenodd" clip-rule="evenodd" d="M13.5898 23.3899C13.3273 23.6524 12.9712 23.7998 12.6 23.7998C12.2288 23.7998 11.8728 23.6524 11.6102 23.3899L3.21021 14.9899C2.94775 14.7274 2.80031 14.3713 2.80031 14.0001C2.80031 13.6289 2.94775 13.2728 3.21021 13.0103L11.6102 4.6103C11.8743 4.35528 12.2279 4.21417 12.595 4.21736C12.962 4.22055 13.3132 4.36779 13.5728 4.62736C13.8323 4.88693 13.9796 5.23807 13.9828 5.60514C13.9859 5.97222 13.8448 6.32586 13.5898 6.5899L7.57961 12.6001L23.8 12.6001C24.1713 12.6001 24.5274 12.7476 24.79 13.0102C25.0525 13.2727 25.2 13.6288 25.2 14.0001C25.2 14.3714 25.0525 14.7275 24.79 14.9901C24.5274 15.2526 24.1713 15.4001 23.8 15.4001L7.57961 15.4001L13.5898 21.4103C13.8523 21.6728 13.9997 22.0289 13.9997 22.4001C13.9997 22.7713 13.8523 23.1274 13.5898 23.3899Z" fill="white" />
</svg>