<svg width="40" height="40" viewBox="0 0 40 40" fill="none" xmlns="http://www.w3.org/2000/svg">
  <path fill-rule="evenodd" clip-rule="evenodd" d="M20.586 6.58606C20.9611 6.21112 21.4697 6.00049 22 6.00049C22.5303 6.00049 23.0389 6.21112 23.414 6.58606L35.414 18.5861C35.7889 18.9611 35.9996 19.4697 35.9996 20.0001C35.9996 20.5304 35.7889 21.039 35.414 21.4141L23.414 33.4141C23.0368 33.7784 22.5316 33.98 22.0072 33.9754C21.4828 33.9709 20.9812 33.7605 20.6104 33.3897C20.2395 33.0189 20.0292 32.5173 20.0247 31.9929C20.0201 31.4685 20.2217 30.9633 20.586 30.5861L29.172 22.0001H6C5.46957 22.0001 4.96086 21.7893 4.58579 21.4143C4.21071 21.0392 4 20.5305 4 20.0001C4 19.4696 4.21071 18.9609 4.58579 18.5858C4.96086 18.2108 5.46957 18.0001 6 18.0001H29.172L20.586 9.41406C20.2111 9.03901 20.0004 8.53039 20.0004 8.00006C20.0004 7.46973 20.2111 6.96112 20.586 6.58606Z" fill="white" />
</svg>