<svg width="33" height="33" viewBox="0 0 33 33" fill="none" xmlns="http://www.w3.org/2000/svg">
<path d="M19.0787 25.8844C18.2287 26.0451 17.3655 26.1257 16.5005 26.125C10.3433 26.125 5.13203 22.0784 3.37891 16.5C3.8509 14.9986 4.5779 13.5898 5.52803 12.3351M19.4155 19.415L13.5828 13.5836C14.3564 12.81 15.4057 11.0003 16.4998 11.0003C17.594 11.0003 18.6433 12.81 19.4169 13.5836C20.1906 14.3573 20.6252 15.4066 20.6252 16.5007C20.6252 17.5948 20.1906 18.6441 19.4169 19.4177L23.942 23.9415M13.5855 13.585L9.06178 9.06125M9.06178 9.06125L4.12553 4.125M9.06178 9.06125C11.2788 7.63065 13.862 6.87143 16.5005 6.875C22.6578 6.875 27.869 10.9216 29.6222 16.5C28.6542 19.5669 26.6444 22.1988 23.9407 23.9401L28.8755 28.875" stroke="#72B5BE" stroke-width="2.75" stroke-linecap="round" stroke-linejoin="round"/>
</svg>
