<svg width="33" height="33" viewBox="0 0 33 33" fill="none" xmlns="http://www.w3.org/2000/svg">
<path d="M20.625 16.5C20.625 17.594 20.1904 18.6432 19.4168 19.4168C18.6432 20.1904 17.594 22 16.5 22C15.406 22 14.3568 20.1904 13.5832 19.4168C12.8096 18.6432 12.375 17.594 12.375 16.5C12.375 15.406 12.8096 14.3568 13.5832 13.5832C14.3568 12.8096 15.406 11 16.5 11C17.594 11 18.6432 12.8096 19.4168 13.5832C20.1904 14.3568 20.625 15.406 20.625 16.5Z" stroke="#72B5BE" stroke-width="2.75" stroke-linecap="round" stroke-linejoin="round"/>
<path d="M3.37988 16.5C5.13163 10.9216 10.3443 6.875 16.5001 6.875C22.6574 6.875 27.8686 10.9216 29.6204 16.5C27.8686 22.0784 22.6574 26.125 16.5001 26.125C10.3443 26.125 5.13163 22.0784 3.37988 16.5Z" stroke="#72B5BE" stroke-width="2.75" stroke-linecap="round" stroke-linejoin="round"/>
</svg>
