<svg width="84" height="84" viewBox="0 0 84 84" fill="none" xmlns="http://www.w3.org/2000/svg">
<path d="M46.1668 0.333328V4.49999H42.0002V29.5H37.8335V33.6667H29.5002V37.8333H25.3335V42H21.1668V46.1667H12.8335V42H8.66683V37.8333H4.50016V29.5H0.333496V54.5H4.50016V58.6667H8.66683V62.8333H12.8335V67H17.0002V83.6667H25.3335V79.5H21.1668V75.3333H25.3335V71.1667H29.5002V67H33.6668V71.1667H37.8335V83.6667H46.1668V79.5H42.0002V62.8333H46.1668V58.6667H50.3335V54.5H54.5002V42H58.6668V46.1667H62.8335V37.8333H54.5002V29.5H75.3335V25.3333H62.8335V21.1667H83.6668V4.49999H79.5002V0.333328M50.3335 4.49999H54.5002V8.66666H50.3335V4.49999Z" fill="white"/>
</svg>
