<svg width="88" height="72" viewBox="0 0 88 72" fill="none" xmlns="http://www.w3.org/2000/svg">
  <path d="M87.8335 35.9167L75.1252 31.2083C74.0418 26.4167 71.3335 23.6667 71.3335 23.6667C69.712 22.0427 67.7862 20.7544 65.6664 19.8754C63.5465 18.9964 61.2742 18.544 58.9793 18.544C56.6845 18.544 54.4121 18.9964 52.2923 19.8754C50.1724 20.7544 48.2467 22.0427 46.6252 23.6667L40.4585 29.8333L12.8335 0.5C8.66683 17.1667 12.8335 33.8333 23.0418 47.25L0.333496 69.25C0.333496 69.25 37.3752 77.5833 58.9585 60.7083C70.4585 51.7083 73.0418 46.4583 74.6668 40.9167L87.8335 35.9167ZM65.7918 36.8333C64.1668 38.4583 61.5002 38.4583 59.8752 36.8333C59.4889 36.4479 59.1825 35.99 58.9734 35.4859C58.7643 34.9819 58.6566 34.4415 58.6566 33.8958C58.6566 33.3501 58.7643 32.8098 58.9734 32.3057C59.1825 31.8017 59.4889 31.3438 59.8752 30.9583C61.5002 29.3333 64.1668 29.3333 65.7918 30.9583C67.4168 32.5833 67.4168 35.2083 65.7918 36.8333Z" fill="white" />
</svg>