<svg width="100" height="100" viewBox="0 0 100 100" fill="none" xmlns="http://www.w3.org/2000/svg">
<path d="M58.3333 66.6667V87.5H41.6667V75H37.5C34.1848 75 31.0054 73.6831 28.6612 71.3389C26.317 68.9946 25 65.8152 25 62.5V50C25 48.895 25.439 47.8351 26.2204 47.0537C27.0018 46.2723 28.0616 45.8334 29.1667 45.8334C30.2717 45.8334 31.3315 46.2723 32.1129 47.0537C32.8943 47.8351 33.3333 48.895 33.3333 50V62.5C33.3333 64.8334 35.2083 66.6667 37.5 66.6667H41.6667V25C41.6667 22.7899 42.5446 20.6703 44.1074 19.1075C45.6702 17.5447 47.7899 16.6667 50 16.6667C52.2101 16.6667 54.3298 17.5447 55.8926 19.1075C57.4554 20.6703 58.3333 22.7899 58.3333 25V58.3334H62.5C63.6051 58.3334 64.6649 57.8944 65.4463 57.113C66.2277 56.3316 66.6667 55.2718 66.6667 54.1667V45.8334C66.6667 44.7283 67.1056 43.6685 67.8871 42.8871C68.6685 42.1057 69.7283 41.6667 70.8333 41.6667C71.9384 41.6667 72.9982 42.1057 73.7796 42.8871C74.561 43.6685 75 44.7283 75 45.8334V54.1667C75 57.4819 73.683 60.6613 71.3388 63.0055C68.9946 65.3497 65.8152 66.6667 62.5 66.6667H58.3333Z" fill="white"/>
</svg>
